<svg xmlns="http://www.w3.org/2000/svg" viewBox="0 0 64 64"><defs><style>.cls-1{fill:#ffab00;}.cls-2{fill:#efc589;}.cls-3{fill:#3e2c27;}.cls-4{fill:#bd7f00;}.cls-5{fill:#281111;}</style></defs><title>fox</title><g id="fox"><path class="cls-1" d="M57,35,45.78,28.69A7.23,7.23,0,0,0,35,35V52.48A1.43,1.43,0,0,0,33.61,51H30.39A1.43,1.43,0,0,0,29,52.48V35a7.23,7.23,0,0,0-10.78-6.31L7,35l8-12A20.2,20.2,0,0,1,32,14a20.2,20.2,0,0,1,17,9Z"/><path class="cls-2" d="M57,35l-4,2.08a35.57,35.57,0,0,0-9.25,6.33,18.37,18.37,0,0,0-5,9.57,5,5,0,0,1-4.9,4H30.1a5,5,0,0,1-4.9-4C23.57,44.85,18.35,40.9,11,37.08L7,35l11.22-6.31A7.23,7.23,0,0,1,29,35V52.48A1.43,1.43,0,0,1,30.39,51h3.22A1.43,1.43,0,0,1,35,52.48V35a7.23,7.23,0,0,1,10.78-6.31Z"/><path class="cls-3" d="M35,52.48a1.49,1.49,0,0,1-.77,1.33L32,55l-2.23-1.19A1.49,1.49,0,0,1,29,52.48,1.43,1.43,0,0,1,30.39,51h3.22A1.43,1.43,0,0,1,35,52.48Z"/><path class="cls-4" d="M21.09,17.09A20.12,20.12,0,0,0,15,23l-.52.78A7.69,7.69,0,0,1,11,17.29V7Z"/><path class="cls-4" d="M53,7V17.29a7.69,7.69,0,0,1-3.5,6.46L49,23a20.12,20.12,0,0,0-6.07-5.88Z"/><circle class="cls-5" cx="23.5" cy="35.5" r="1.5"/><circle class="cls-5" cx="40.5" cy="35.5" r="1.5"/><path class="cls-5" d="M33.9,58H30.1a6,6,0,0,1-5.88-4.83C22.7,45.61,18.05,41.87,10.53,38l-4-2.08A1,1,0,0,1,6,35.25a1,1,0,0,1,.14-.8l8-12a21.2,21.2,0,0,1,6.37-6.18A21,21,0,0,1,32,13a20.73,20.73,0,0,1,4.28.39,1,1,0,0,1-.38,2A19,19,0,0,0,32,15a18.93,18.93,0,0,0-10.39,2.92,19.21,19.21,0,0,0-5.77,5.59l-7.4,11.1,3,1.56c7.86,4.08,13.06,8.28,14.73,16.59a4,4,0,0,0,1.39,2.32,4,4,0,0,0,2.53.9h3.8a4.06,4.06,0,0,0,2.54-.9,4,4,0,0,0,1.38-2.31A19.56,19.56,0,0,1,43,42.71c.32-.32.64-.64,1-.94a1,1,0,1,1,1.34,1.48c-.3.28-.6.56-.88.86a17.23,17.23,0,0,0-4.7,9.07A6,6,0,0,1,33.9,58Z"/><path class="cls-5" d="M51.62,38.82a1,1,0,0,1-.41-1.92l.87-.46,3.47-1.81-7.4-11.11a19.58,19.58,0,0,0-8.61-7.06,1,1,0,1,1,.76-1.84,20.28,20.28,0,0,1,3.14,1.62,21.29,21.29,0,0,1,6.37,6.17l8,12a1,1,0,0,1,.14.8,1,1,0,0,1-.51.64L53,38.21l-.9.48A1,1,0,0,1,51.62,38.82Z"/><path class="cls-5" d="M47.79,41.11a1,1,0,0,1-.85-.48,1,1,0,0,1,.33-1.37l.38-.25a1,1,0,0,1,1.08,1.68l-.42.27A1,1,0,0,1,47.79,41.11Z"/><path class="cls-5" d="M32,56a1,1,0,0,1-.47-.12L29.3,54.69A2.48,2.48,0,0,1,28,52.48,2.44,2.44,0,0,1,30.39,50h3.22A2.44,2.44,0,0,1,36,52.48a2.49,2.49,0,0,1-1.3,2.21l-2.23,1.19A1,1,0,0,1,32,56Zm-1.61-4a.45.45,0,0,0-.39.48.49.49,0,0,0,.24.45l1.76.94,1.76-.94a.49.49,0,0,0,.24-.45.45.45,0,0,0-.39-.48Z"/><path class="cls-5" d="M14.5,24.75a1,1,0,0,1-.55-.16A8.71,8.71,0,0,1,10,17.29V14a1,1,0,0,1,2,0v3.29a6.69,6.69,0,0,0,2.26,5,21.35,21.35,0,0,1,5.26-5.38L12,9.41V10a1,1,0,0,1-2,0V7a1,1,0,0,1,.62-.92,1,1,0,0,1,1.09.21L21.8,16.38a1,1,0,0,1,.28.82,1,1,0,0,1-.46.74,19.21,19.21,0,0,0-5.77,5.59l-.52.77A1,1,0,0,1,14.5,24.75Z"/><path class="cls-5" d="M49.5,24.75a1,1,0,0,1-.83-.45l-.52-.78a19.3,19.3,0,0,0-5.77-5.58,1,1,0,0,1-.46-.74,1,1,0,0,1,.28-.82L52.29,6.29a1,1,0,0,1,1.09-.21A1,1,0,0,1,54,7V17.29a8.71,8.71,0,0,1-4,7.3A1,1,0,0,1,49.5,24.75Zm-5-7.82a21.35,21.35,0,0,1,5.26,5.38,6.69,6.69,0,0,0,2.26-5V9.41Z"/><path class="cls-5" d="M29,53.48a1,1,0,0,1-1-1V41a1,1,0,0,1,2,0V52.48A1,1,0,0,1,29,53.48Z"/><path class="cls-5" d="M29,38a1,1,0,0,1-1-1V35a6.19,6.19,0,0,0-1.83-4.41,6.26,6.26,0,0,0-7.46-1L7.49,35.87a1,1,0,1,1-1-1.74l11.22-6.31A8.23,8.23,0,0,1,30,35v2A1,1,0,0,1,29,38Z"/><path class="cls-5" d="M29,53.48a1,1,0,0,1-1-1V41a1,1,0,0,1,2,0V52.48A1,1,0,0,1,29,53.48Z"/><path class="cls-5" d="M29,38a1,1,0,0,1-1-1V35a6.19,6.19,0,0,0-1.83-4.41,6.26,6.26,0,0,0-7.46-1L7.49,35.87a1,1,0,1,1-1-1.74l11.22-6.31A8.23,8.23,0,0,1,30,35v2A1,1,0,0,1,29,38Z"/><path class="cls-5" d="M35,53.48a1,1,0,0,1-1-1V35a8.23,8.23,0,0,1,12.27-7.18l11.22,6.31a1,1,0,1,1-1,1.74L45.29,29.56a6.26,6.26,0,0,0-7.46,1A6.19,6.19,0,0,0,36,35V52.48A1,1,0,0,1,35,53.48Z"/></g></svg>